<?xml version="1.0" encoding="UTF-8"?><svg id="a" xmlns="http://www.w3.org/2000/svg" viewBox="0 0 1064.82 257.65"><defs><style>.b{fill:#231f20;}</style></defs><g><path d="M282.84,237.71l-.08-.08,.02,.07s.03,0,.05,0Z"/><path d="M132.98,146.62c-30.8-13.64,26.83-27.75,31.71-28.89-42.15,17.91-22.03,24.09-2.06,28.28,19.9,4.19,80.88-1.07,45.43,34.53-6.89,6.92-10.07,13.4-10.84,19.37-.07,.57-.12,1.12-.15,1.67-.28,5.1,1.23,9.78,3.77,14,13.38,19.13,57.7,21.77,74.95,22.06h6.45s.05,0,.08,0c.27,0,.46,0,.46,0h.46l-8.38-3.58c-13.42-7.39-37.27-28.2-33.46-80.8,.3-3.28,.61-6.25,.91-9.83,.84-9.76,1.75-20.58,2.82-32.55,.53-6.48,1.22-13.42,1.83-20.66,.76-20.58-6.4-39.56-18.83-54.12-13.8-16.31-34.23-26.98-57.25-28.13-14.48-.69-26.3,1.45-35.98,5.72-25.15,11.13-35.29,36.89-38.88,65.02-.08,.46-.15,.99-.3,1.45v.08c-1.07,3.35-4.19,5.72-7.85,5.95-38.95,1.75-74.7,16.46-76.38,69.06-.76,22.64,8,43.52,22.79,58.54,8.84,9.15,19.97,16.08,32.47,20.05-3.96-21.65,44.59-42.15,77.83-54.65,45.13-16.92,20.58-18.29-11.59-32.55Z"/></g><g><path class="b" d="M381.19,206.27h-93.12V65.25h26.76v120.07h62.42l3.94,20.94Z"/><path class="b" d="M390.51,87.13c-2.9-2.97-4.35-6.6-4.35-10.89s1.45-7.88,4.35-10.78c2.91-2.9,6.43-4.36,10.58-4.36s7.74,1.45,10.79,4.36c3.04,2.9,4.56,6.5,4.56,10.78s-1.49,7.91-4.46,10.89c-2.97,2.98-6.53,4.46-10.68,4.46s-7.88-1.48-10.79-4.46Zm-2.7,119.14V105.69h27.17v100.58h-27.17Z"/><path class="b" d="M516.6,163.97c.83,4.42,2.35,8.26,4.56,11.5,2.21,3.25,5.39,5.78,9.54,7.57s9.54,2.7,16.18,2.7c5.8,0,11.02-.86,15.65-2.59,4.63-1.73,9.16-3.91,13.59-6.53l7.67,19.7c-2.91,2.35-6.19,4.49-9.85,6.43-3.66,1.94-7.74,3.42-12.23,4.46-4.49,1.04-9.64,1.56-15.45,1.56-13,0-23.78-2.15-32.35-6.43-8.58-4.29-15.03-10.4-19.39-18.35-4.35-7.95-6.53-17.25-6.53-27.89s2.04-20.15,6.12-28.1c4.08-7.95,9.88-14.1,17.42-18.46,7.53-4.36,16.56-6.53,27.06-6.53s18.97,2.38,25.82,7.15c6.84,4.77,11.89,11.17,15.14,19.18,3.25,8.02,4.88,16.8,4.88,26.34v8.3h-67.82Zm42.3-18.05c-.83-4.56-2.21-8.3-4.15-11.2-1.94-2.9-4.32-5.08-7.15-6.53-2.84-1.45-6.05-2.18-9.64-2.18s-6.88,.76-9.85,2.29c-2.98,1.52-5.4,3.73-7.26,6.63-1.87,2.9-3.21,6.57-4.05,10.99h42.1Z"/><path class="b" d="M483.51,106.11h-17.42v-3.94c0-5.39,1.07-9.78,3.21-13.17,2.14-3.39,5.57-5.08,10.27-5.08,1.66,0,3.42,.24,5.29,.73,1.87,.49,3.77,1.21,5.71,2.18l7.88-19.7c-1.52-1.25-3.42-2.35-5.71-3.32-2.28-.97-4.7-1.73-7.26-2.28-2.56-.55-5.01-.83-7.36-.83-8.16,0-15.14,1.52-20.94,4.56-5.8,3.04-10.27,7.36-13.38,12.96-3.11,5.6-4.67,12.27-4.67,20.01v7.88h-15.55l-.2,20.33h15.76v79.84h26.96V126.43h17.42v-20.33Z"/><path class="b" d="M679.51,113.32c5.13,7.21,7.69,17.25,7.69,30.14v63.19h-27.02v-61.94c0-6.24-1.28-11.09-3.85-14.55-2.57-3.46-6.13-5.2-10.71-5.2s-9.15,1.08-13.3,3.22c-4.16,2.15-8.73,5.02-13.72,8.63v69.84h-26.82V62.18l26.82-2.29v53.63c5.68-3.46,11.57-6.16,17.67-8.11,6.1-1.94,11.57-2.91,16.42-2.91,12.75,0,21.69,3.6,26.81,10.81Z"/><path class="b" d="M790.8,164.25h-67.97c1.38,7.07,4.4,12.47,9.04,16.21,4.64,3.74,11.74,5.61,21.31,5.61,5.54,0,10.53-.76,14.97-2.29,4.43-1.52,9.21-3.74,14.34-6.65l7.9,19.54c-5.13,4.02-10.67,7.1-16.63,9.25-5.96,2.15-13.03,3.22-21.2,3.22-19.12,0-33.64-4.68-43.55-14.03-9.91-9.35-14.86-22.27-14.86-38.77,0-10.67,2.04-20.02,6.13-28.06,4.09-8.04,9.94-14.24,17.56-18.6,7.62-4.37,16.63-6.55,27.02-6.55s18.64,2.36,25.57,7.07c6.93,4.71,12.06,11.05,15.38,19.02,3.33,7.97,4.99,16.87,4.99,26.71v8.31Zm-67.77-18.08h42.2c-1.39-6.65-3.85-11.64-7.38-14.97-3.53-3.33-8.07-4.99-13.62-4.99s-10.19,1.7-13.93,5.09c-3.74,3.4-6.17,8.35-7.28,14.86Z"/><path class="b" d="M809.34,134.73l-7.28-22.45c3.6-2.35,9.35-4.47,17.25-6.34s14.2-2.81,18.92-2.81c8.04,0,15.38,1.59,22.03,4.78,6.65,3.19,11.95,7.62,15.9,13.3,3.95,5.68,5.92,12.06,5.92,19.12v66.31h-17.67l-4.57-10.81c-8.45,8.87-17.32,13.3-26.61,13.3-12.06,0-21.13-2.94-27.23-8.83-6.1-5.89-9.15-13.82-9.15-23.8s3.46-18.19,10.39-23.8c6.93-5.61,16.21-8.42,27.85-8.42h19.75c-.14-5.12-1.63-9.11-4.47-11.95-2.84-2.84-6.76-4.26-11.74-4.26-4.57,0-9.63,.66-15.17,1.97-5.54,1.32-10.26,2.88-14.14,4.68Zm10.6,41.78c0,3.05,1.21,5.68,3.64,7.9,2.42,2.22,5.51,3.33,9.25,3.33,8.04,0,15.45-3.33,22.24-9.98v-15.38h-20.37c-4.44,0-8,1.39-10.71,4.16-2.7,2.77-4.05,6.1-4.05,9.98Z"/><path class="b" d="M924.29,206.65h-27.02V105.84h14.14l8.94,16.84c4.85-4.29,10.53-8.17,17.04-11.64,6.51-3.46,12.26-5.2,17.25-5.2l5.4,21.62c-4.57,0-10.22,1.66-16.94,4.99-6.72,3.33-12.99,7.55-18.81,12.68v61.53Z"/><path class="b" d="M1022.96,106.04l8.31,20.79h-26.61v42.82c0,5.4,1.28,9.77,3.85,13.1,2.56,3.33,6.2,4.99,10.91,4.99,3.6,0,7.28-.9,11.02-2.7l7.9,19.54c-2.08,1.66-5.16,3.12-9.25,4.37-4.09,1.25-7.79,1.87-11.12,1.87-12.61,0-22.45-3.19-29.52-9.56-7.07-6.37-10.6-15.31-10.6-26.81v-47.6h-13.51v-20.79h13.51v-23.9l26.81-4.78v28.69h18.29Z"/></g></svg>