<?xml version="1.0" encoding="UTF-8"?><svg id="a" xmlns="http://www.w3.org/2000/svg" xmlns:xlink="http://www.w3.org/1999/xlink" viewBox="0 0 300.57 257.65"><defs><style>.d{fill:url(#c);}.e{fill:url(#b);}</style><linearGradient id="b" x1="285.72" y1="243.7" x2="285.78" y2="243.77" gradientTransform="matrix(1, 0, 0, 1, 0, 0)" gradientUnits="userSpaceOnUse"><stop offset="0" stop-color="#ff0061"/><stop offset=".51" stop-color="#6d0198"/><stop offset="1" stop-color="#02012a"/></linearGradient><linearGradient id="c" x1="88.05" y1="84.51" x2="258.43" y2="255.64" xlink:href="#b"/></defs><path class="e" d="M285.8,243.76l-.08-.08,.02,.07s.03,0,.05,0Z"/><path class="d" d="M135.94,152.67c-30.8-13.64,26.83-27.75,31.71-28.89-42.15,17.91-22.03,24.09-2.06,28.28,19.9,4.19,80.88-1.07,45.43,34.53-6.89,6.92-10.07,13.4-10.84,19.37-.07,.57-.12,1.12-.15,1.67-.28,5.1,1.23,9.78,3.77,14,13.38,19.13,57.7,21.77,74.95,22.06h6.45s.05,0,.08,0c.27,0,.46,0,.46,0h.46l-8.38-3.58c-13.42-7.39-37.27-28.2-33.46-80.8,.3-3.28,.61-6.25,.91-9.83,.84-9.76,1.75-20.58,2.82-32.55,.53-6.48,1.22-13.42,1.83-20.66,.76-20.58-6.4-39.56-18.83-54.12-13.8-16.31-34.23-26.98-57.25-28.13-14.48-.69-26.3,1.45-35.98,5.72-25.15,11.13-35.29,36.89-38.88,65.02-.08,.46-.15,.99-.3,1.45v.08c-1.07,3.35-4.19,5.72-7.85,5.95-38.95,1.75-74.7,16.46-76.38,69.06-.76,22.64,8,43.52,22.79,58.54,8.84,9.15,19.97,16.08,32.47,20.05-3.96-21.65,44.59-42.15,77.83-54.65,45.13-16.92,20.58-18.29-11.59-32.55Z"/></svg>